<svg id="eOtgMhCyc3E1" xmlns="http://www.w3.org/2000/svg" xmlns:xlink="http://www.w3.org/1999/xlink" viewBox="0 0 1920 1080" shape-rendering="geometricPrecision" text-rendering="geometricPrecision" project-id="2f81a488bfda464880143d9923521054" export-id="636ce33aab514c348e3cbe275e2eadde" cached="false"><path d="M-1.0724,1048.59134c3.49163-17.45816,14.96811-34.28618,24.53802-49.07604c11.74698-18.15442,21.24831-42.52208,40.8967-53.98364c30.25587-17.64926,48.42739,12.96775,76.88579-37.62496c34.04295-60.5208,33.01598-132.24729,65.43472-193.03241c21.32269-39.98004,67.20699-26.90105,94.88034-63.79885c40.5441-54.05879,45.95352-127.89613,75.24992-186.48894c14.95568-29.91137,82.16225-18.15223,112.87489-53.98364c34.20326-39.9038,79.32979-145.88432,117.78249-166.85853c29.41702-16.04565,73.23763-32.14697,106.33141-34.35323c29.51635-1.96776,70.9631,9.34962,96.51621-9.81521c63.96426-47.97319,173.25462-256.89281,207.75523-265.0106c21.93111-5.16026,61.15602,3.19612,81.7934,11.45108" transform="translate(0 0.000001)" fill="none" stroke="#3f5787" stroke-width="3.84"/><path d="M1935.79521,1051.86307c-125.0752,0-81.05609-163.6116-176.67374-193.03242-15.90643-4.89429-37.7597-1.63587-53.98364-1.63587-78.58403,0-184.0571,29.84361-256.83126-6.54347-128.84499-64.42249-148.83046-174.83126-214.2987-287.91275-11.91277-20.57661-20.97306-47.54305-39.26083-63.79885-28.37506-25.22228-68.4489-30.58511-101.42381-45.8043-40.09141-18.50373-83.81878-38.06946-121.05423-62.16298-35.96744-23.27305-32.91662-102.64723-75.24992-130.86943-39.29437-26.19625-78.718-31.14694-122.69009-45.8043-70.76904-23.58968-144.31842-55.31807-209.39109-91.6086C495.80848,84.13715,490.95779,39.39526,440.61194,1.63587" fill="none" stroke="#3f5787" stroke-width="3.84"/><path d="M425.88912,1078.03696c71.88143-26.95553,77.48731-77.691,175.03787-83.42926c58.36504-3.43324,111.05692,9.11915,168.4944,14.72281c111.44016,10.87221,242.80593,15.60771,350.07573-21.26628c126.21432-43.38617,242.08505-140.97437,312.45077-253.55953c30.18331-48.2933,52.72218-97.90958,91.6086-140.68464c29.4109-32.35199,66.06403-60.74458,99.78794-88.33687c34.22092-27.99893,77.4773-58.9335,122.69009-62.16298c31.02911-2.21636,142.19778,1.7586,160.31506-16.35868" fill="none" stroke="#3f5787" stroke-width="3.84"/><path d="M0.56347,377.88549c70.7308-14.14616,149.08143-18.39566,220.84217-11.45108c66.32253,6.41831,220.08348,116.16439,281.36928,153.77158c96.13452,58.99164,200.39262,108.99252,291.18449,176.67373c39.34651,29.33103,75.88926,62.7749,117.78249,88.33687c32.89764,20.07314,70.09207,32.53296,101.42381,55.61951c23.01656,16.95957,44.89011,36.05398,70.34232,49.07604c60.04672,30.72158,131.92789,62.38373,199.57589,70.34232c118.82629,13.97956,224.29291,6.67668,341.8964,37.62496c72.69268,19.12965,82.25227,73.02556,132.5053,98.15208" transform="translate(0 0.000001)" fill="none" stroke="#3f5787" stroke-width="3.84"/><path d="M1718.22478,21.26628c-11.58179,19.30299-18.16222,41.14821-31.08149,60.52711-59.64566,89.46848-134.12717,136.79792-125.96183,255.1954c2.15596,31.26137,11.21002,67.19361,29.44562,93.24447c17.23119,24.61599,49.35882,41.85552,80.15753,35.98909c128.31218-24.44042,95.78627-228.15308,13.08694-83.42926-25.19837,44.09715,10.7954,179.79985,6.54347,237.20085-7.48131,100.9977-45.78693,205.85588-96.51621,292.82036-23.56883,40.40371-50.00288,79.96985-75.24992,119.41836-13.76564,21.50882-27.79274,42.49854-39.26083,65.43472-1.31323,2.62646-1.39185,10.4352-3.27174,8.17934-3.98019-4.77623-3.27174-11.99636-4.9076-17.99455" transform="translate(.000001 0.000001)" fill="none" stroke="#3f5787" stroke-width="3.84"/><path d="M1677.32808,0c-38.89423,64.82372,14.35667,165.5826,52.34777,217.57043c72.64267,99.40576,175.03787,133.95866,175.03787,274.82581c0,32.10322.03402,64.25343-11.45107,94.88034-6.20688,16.55167-14.13187,30.76953-22.90215,45.8043-11.49341,19.70299-28.01964,40.92468-52.34777,44.16843-67.08357,8.94447-59.53529-86.45623-53.98364-130.86943.86765-6.94123,15.13573-89.14689,34.35323-50.71191c2.68247,5.36494,0,11.99637,0,17.99455c0,68.84577-68.79847,74.4826-117.78249,101.42381-29.92939,16.46117-61.25002,39.29478-80.15753,68.70645-15.00905,23.34741-22.19186,52.14433-29.44562,78.52166-39.49746,143.62713-59.48992,318.54174,21.26628,453.13541" fill="none" stroke="#3f5787" stroke-width="3.84"/><path d="M308.10663,17.99455c-4.99891,39.99128,14.82346,79.75494,4.9076,119.41836-6.50934,26.03735-20.91776,48.37899-32.71736,71.97819-36.59067,73.18134-55.62414,155.34953-49.07604,237.20085c9.36271,117.03387,122.98742,237.16157,191.39655,327.17358c23.63251,31.09541,43.6068,65.23116,67.07058,96.51621c65.318,87.09066,152.70262,149.21884,255.1954,186.48894c32.97665,11.99151,65.65298,26.75025,98.15207,8.17934" transform="translate(0 0.000001)" fill="none" stroke="#3f5787" stroke-width="3.84"/><path d="M1806.99513,-14.78082c0,28.85419,2.28988,60.95617-11.63433,87.25745-23.519,44.42478-97.97083,90.94125-83.37934,149.3072c14.78698,59.14791,76.26042,16.83459,89.19651-25.20771c2.16728-7.04365,13.08643-20.11805,5.81716-21.3296-31.47077-5.24513-91.1997,144.73586-81.44029,176.45396c4.32921,14.06994,19.10783,31.96565,27.14676,44.59825c3.41766,5.3706,7.75622,11.08567,7.75622,17.45149c0,5.17081.34396,10.35308,0,15.51244-.30402,4.56027-.9476,9.11182-1.93906,13.57338-21.33916,96.0262-106.41388,169.46619-126.03854,267.58952-24.67863,123.39316-15.56546,245.47029,5.81716,368.42036c7.30229,41.98816,20.4874,83.55578,25.20771,126.03854c3.90589,35.15297-5.81716,68.93673-5.81716,102.76989" fill="none" stroke="#3f5787" stroke-width="3.84"/><path d="M1609.21157,51.14703c-11.80089,70.80535-27.59846,138.63697-17.45149,211.35694c5.34408,38.29923,21.07612,74.52363,27.14676,112.46516c13.91068,86.94177,7.75204,176.4331,25.20771,263.71141c16.38197,81.90983,46.53662,187.12049,13.57338,269.52858-46.42254,116.05634-133.59148,215.03177-221.05221,302.4925" fill="none" stroke="#3f5787" stroke-width="3.84"/><path d="M118.07866,20.12216c75.31906,75.31906-.12267,281.98653-13.57338,372.29847C79.34154,561.37719,139.69527,707.4893,218.9095,853.9156c35.55411,65.72123,121.16326,258.29312,228.80843,215.23505" fill="none" stroke="#3f5787" stroke-width="3.84"/></svg>
