<?xml version="1.0" ?>
<!-- Uploaded to: SVG Repo, www.svgrepo.com, Generator: SVG Repo Mixer Tools -->
<svg width="800px" height="800px" viewBox="0 0 512 512" id="Layer_1" version="1.1" xml:space="preserve" xmlns="http://www.w3.org/2000/svg" xmlns:xlink="http://www.w3.org/1999/xlink">
<style type="text/css">
	.st0{fill:#4CC3F2;}
	.st1{fill:#0A557F;}
</style>
<g>
<path class="st0" d="M246,171.1h96.9c7.3,8,13.9,16.9,19.7,26.7H149.3c5.9-9.8,12.5-18.7,19.7-26.7H201l0-7.5h45L246,171.1z"/>
<path class="st0" d="M340.2,254.5h45.4c2.1,8.7,3.7,17.6,4.8,26.7H121.6c1.1-9,2.7-18,4.8-26.7h168.8V247l45,0V254.5z"/>
<path class="st0" d="M223.5,337.8h166.9c-1.1,9-2.7,18-4.8,26.7H126.4c-2.1-8.7-3.7-17.6-4.8-26.7h56.9v-7.5h45V337.8z"/>
<path class="st0" d="M340.2,421.2h22.5c-5.9,9.8-12.5,18.7-19.7,26.7H169.1c-7.3-8-13.9-16.9-19.7-26.7h145.9v-7.5h45V421.2z"/>
<rect class="st1" height="67.3" width="15" x="482" y="152.7"/>
<rect class="st1" height="15" width="15" x="482" y="235"/>
<rect class="st1" height="67.3" width="15" x="15" y="293.5"/>
<rect class="st1" height="15" width="15" x="15" y="375.8"/>
<rect class="st1" height="15" width="15" x="216" y="156.1"/>
<rect class="st1" height="15" width="15" x="310.2" y="239.5"/>
<rect class="st1" height="15" width="15" x="193.5" y="322.8"/>
<rect class="st0" height="38.3" width="26.7" x="242.7" y="22.5"/>
<path class="st1" d="M428.8,288.1l-0.5-6.9h-22.7c-1-9-2.5-17.9-4.5-26.7h23.2l-2.3-9.3c-3.6-14.9-8.6-29.4-14.7-43l-2-4.4h-25.3   c-5.2-9.6-11-18.5-17.4-26.7h28.4l-9.2-12.1l-0.3-0.4c-13.5-17.6-28.9-32-46.1-43l-1.8-1.2H223.2V75.8h65.7v23.7h15V60.8h-19.5   V49.1h23c3.1,8.7,11.5,15,21.2,15c12.4,0,22.5-10.1,22.5-22.5c0-12.4-10.1-22.5-22.5-22.5c-9.8,0-18.2,6.3-21.2,15h-23V7.5h-56.7   v53.3h-19.5v53.7h-29.6l-1.8,1.2c-17.1,11-32.6,25.4-46.1,43l-9.5,12.5h28.4c-6.4,8.2-12.2,17.1-17.4,26.7h-25.3l-2,4.4   c-6.1,13.6-11.1,28-14.7,43l-2.3,9.3H111c-2,8.7-3.5,17.7-4.5,26.7H83.8l-0.5,6.9c-0.5,7.1-0.8,14.3-0.8,21.4s0.3,14.3,0.8,21.4   l0.5,6.9h22.7c1,9,2.5,17.9,4.5,26.7H87.8l2.3,9.3c3.6,14.9,8.6,29.4,14.7,43l2,4.4h25.3c5.2,9.6,11,18.5,17.4,26.7h-28.4l9.2,12.1   l0.3,0.4c13.5,17.6,29,32,46.1,43l1.8,1.2h154.9l1.8-1.2c17.1-11,32.6-25.4,46.1-43l9.5-12.5h-28.4c6.4-8.2,12.2-17.1,17.4-26.7   h25.3l2-4.4c6.1-13.6,11.1-28,14.7-43l2.3-9.3H401c2-8.7,3.5-17.7,4.5-26.7h22.7l0.5-6.9c0.5-7.1,0.8-14.3,0.8-21.4   S429.3,295.2,428.8,288.1z M328.6,34.1c4.2,0,7.5,3.4,7.5,7.5c0,4.2-3.4,7.5-7.5,7.5c-4.2,0-7.5-3.4-7.5-7.5   C321.1,37.5,324.5,34.1,328.6,34.1z M242.7,22.5h26.7v38.3h-26.7V22.5z M169.1,171.1H201v-15h-48.8c9.4-10.4,19.7-19.4,30.8-26.7   h25.2h95.7H329c11,7.3,21.3,16.2,30.8,26.7H246v15h96.9c7.3,8,13.9,16.9,19.7,26.7H149.3C155.2,188,161.8,179.1,169.1,171.1z    M107.1,239.5c2.6-9.2,5.8-18.1,9.4-26.7h278.9c3.6,8.6,6.8,17.5,9.4,26.7h-64.7v15h45.4c2.1,8.7,3.7,17.6,4.8,26.7H121.6   c1.1-9,2.7-18,4.8-26.7h168.8v-15H107.1z M329,489.5H183c-11-7.3-21.3-16.2-30.8-26.7h207.5C350.3,473.3,340,482.2,329,489.5z    M404.9,379.5c-2.6,9.2-5.8,18.1-9.4,26.7h-55.3v15h22.5c-5.9,9.8-12.5,18.7-19.7,26.7H169.1c-7.3-8-13.9-16.9-19.7-26.7h145.9v-15   H116.5c-3.6-8.6-6.8-17.5-9.4-26.7H404.9z M414.2,322.8H223.5v15h166.9c-1.1,9-2.7,18-4.8,26.7H126.4c-2.1-8.7-3.7-17.6-4.8-26.7   h56.9v-15H97.8c-0.2-4.5-0.3-8.9-0.3-13.3s0.1-8.9,0.3-13.3h316.5c0.2,4.4,0.3,8.9,0.3,13.3C414.6,313.9,414.5,318.4,414.2,322.8z"/>
<rect class="st1" height="15" width="15" x="310.2" y="406.2"/>
</g>
</svg>