<?xml version="1.0" encoding="iso-8859-1"?>
<!-- Uploaded to: SVG Repo, www.svgrepo.com, Generator: SVG Repo Mixer Tools -->
<svg height="800px" width="800px" version="1.1" id="Layer_1" xmlns="http://www.w3.org/2000/svg" xmlns:xlink="http://www.w3.org/1999/xlink" 
	 viewBox="0 0 512 512" xml:space="preserve">
<path style="fill:#E1EAF6;" d="M10.774,312.951v-43.085V132.153c0-10.515,8.533-19.048,19.048-19.048H256h226.178
	c10.515,0,19.048,8.533,19.048,19.048v137.713v43.085v66.896c0,10.515-8.533,19.048-19.048,19.048H29.822
	c-10.515,0-19.048-8.533-19.048-19.048V312.951z M452.517,291.414c0-36.89-29.909-66.799-66.799-66.799
	s-66.799,29.908-66.799,66.799c0,36.89,29.909,66.788,66.799,66.788S452.517,328.304,452.517,291.414z M193.08,291.414
	c0-36.89-29.909-66.799-66.799-66.799s-66.799,29.908-66.799,66.799c0,36.89,29.909,66.788,66.799,66.788
	S193.08,328.304,193.08,291.414z"/>
<path style="fill:#5A5D6F;" d="M385.718,224.615c36.89,0,66.799,29.908,66.799,66.799s-29.909,66.788-66.799,66.788
	s-66.799-29.898-66.799-66.788S348.828,224.615,385.718,224.615z M404.745,291.414c0-10.515-8.511-19.038-19.027-19.038
	c-10.505,0-19.027,8.522-19.027,19.038c0,10.505,8.522,19.027,19.027,19.027C396.234,310.441,404.745,301.919,404.745,291.414z"/>
<path style="fill:#9DA6BA;" d="M385.718,272.376c10.515,0,19.027,8.522,19.027,19.038c0,10.505-8.511,19.027-19.027,19.027
	c-10.505,0-19.027-8.522-19.027-19.027C366.692,280.899,375.214,272.376,385.718,272.376z"/>
<path style="fill:#5A5D6F;" d="M126.282,224.615c36.89,0,66.799,29.908,66.799,66.799s-29.908,66.788-66.799,66.788
	s-66.799-29.898-66.799-66.788S89.392,224.615,126.282,224.615z M145.308,291.414c0-10.515-8.522-19.038-19.027-19.038
	c-10.515,0-19.027,8.522-19.027,19.038c0,10.505,8.511,19.027,19.027,19.027C136.786,310.441,145.308,301.919,145.308,291.414z"/>
<g>
	<path style="fill:#9DA6BA;" d="M126.282,272.376c10.505,0,19.027,8.522,19.027,19.038c0,10.505-8.522,19.027-19.027,19.027
		c-10.515,0-19.027-8.522-19.027-19.027C107.255,280.899,115.766,272.376,126.282,272.376z"/>
	<path style="fill:#9DA6BA;" d="M59.483,291.414c0-7.543,1.269-14.785,3.574-21.548H10.774v43.085h52.28
		C60.75,306.192,59.483,298.952,59.483,291.414z"/>
	<path style="fill:#9DA6BA;" d="M452.517,291.414c0-7.543-1.269-14.785-3.574-21.548h52.283v43.085h-52.28
		C451.249,306.192,452.517,298.952,452.517,291.414z"/>
</g>
<path d="M126.282,321.215c16.431,0,29.801-13.368,29.801-29.801c0-16.438-13.368-29.812-29.801-29.812s-29.801,13.374-29.801,29.812
	C96.481,307.845,109.849,321.215,126.282,321.215z M126.282,283.15c4.551,0,8.253,3.707,8.253,8.264
	c0,4.551-3.702,8.253-8.253,8.253c-4.551,0-8.253-3.702-8.253-8.253C118.029,286.858,121.731,283.15,126.282,283.15z"/>
<path d="M29.822,409.669h452.355c16.444,0,29.822-13.378,29.822-29.822v-66.896v-43.085V132.153
	c0-16.444-13.378-29.822-29.822-29.822h-18.106c-5.95,0-10.774,4.824-10.774,10.774c0,5.95,4.823,10.774,10.774,10.774h18.106
	c4.562,0,8.274,3.712,8.274,8.274v126.939h-34.243c-12.281-26.676-39.25-45.251-70.491-45.251
	c-42.774,0-77.573,34.799-77.573,77.572c0,42.767,34.799,77.562,77.573,77.562c31.243,0,58.214-18.574,70.494-45.251h34.24v56.122
	c0,4.562-3.712,8.274-8.274,8.274H29.822c-4.562,0-8.274-3.712-8.274-8.274v-56.122h34.24c12.28,26.676,39.25,45.251,70.494,45.251
	c42.774,0,77.572-34.793,77.572-77.562c0-42.774-34.799-77.572-77.572-77.572c-31.241,0-58.21,18.574-70.491,45.251H21.548V132.153
	c0-4.562,3.712-8.274,8.274-8.274h215.404v35.015c0,5.95,4.824,10.774,10.774,10.774c5.95,0,10.774-4.824,10.774-10.774v-35.015
	h130.904c5.95,0,10.774-4.823,10.774-10.774c0-5.95-4.823-10.774-10.774-10.774H29.822C13.378,102.331,0,115.709,0,132.153v137.713
	v43.085v66.896C0,396.291,13.378,409.669,29.822,409.669z M385.718,347.428c-30.892,0-56.025-25.127-56.025-56.014
	c0-30.892,25.132-56.025,56.025-56.025s56.025,25.132,56.025,56.025C441.743,322.3,416.611,347.428,385.718,347.428z
	 M462.526,280.64h27.926v21.537h-27.925c0.491-3.52,0.764-7.11,0.764-10.763C463.291,287.756,463.017,284.163,462.526,280.64z
	 M126.282,235.389c30.892,0,56.025,25.132,56.025,56.025c0,30.886-25.132,56.014-56.025,56.014s-56.025-25.127-56.025-56.014
	C70.257,260.522,95.389,235.389,126.282,235.389z M49.473,302.177H21.548V280.64h27.926c-0.492,3.524-0.765,7.116-0.765,10.774
	C48.709,295.067,48.982,298.656,49.473,302.177z"/>
<path d="M110.552,154.046v21.009c0,5.95,4.823,10.774,10.774,10.774c5.95,0,10.774-4.824,10.774-10.774v-21.009
	c0-5.95-4.824-10.774-10.774-10.774C115.375,143.272,110.552,148.096,110.552,154.046z"/>
<path d="M143.681,154.046v21.009c0,5.95,4.824,10.774,10.774,10.774s10.774-4.824,10.774-10.774v-21.009
	c0-5.95-4.824-10.774-10.774-10.774S143.681,148.096,143.681,154.046z"/>
<path d="M176.811,154.046v21.009c0,5.95,4.824,10.774,10.774,10.774c5.95,0,10.774-4.824,10.774-10.774v-21.009
	c0-5.95-4.824-10.774-10.774-10.774C181.635,143.272,176.811,148.096,176.811,154.046z"/>
<path d="M226.372,226.501c5.95,0,10.774-4.824,10.774-10.774v-3.771c0-5.95-4.824-10.774-10.774-10.774
	c-5.95,0-10.774,4.824-10.774,10.774v3.771C215.598,221.677,220.421,226.501,226.372,226.501z"/>
<path d="M256,226.501c5.95,0,10.774-4.824,10.774-10.774v-3.771c0-5.95-4.824-10.774-10.774-10.774s-10.774,4.824-10.774,10.774
	v3.771C245.226,221.677,250.05,226.501,256,226.501z"/>
<path d="M296.402,211.956c0-5.95-4.823-10.774-10.774-10.774s-10.774,4.824-10.774,10.774v3.771c0,5.95,4.823,10.774,10.774,10.774
	s10.774-4.824,10.774-10.774V211.956z"/>
<path d="M215.598,252.358c0,5.95,4.824,10.774,10.774,10.774c5.95,0,10.774-4.823,10.774-10.774v-3.771
	c0-5.95-4.824-10.774-10.774-10.774c-5.95,0-10.774,4.824-10.774,10.774V252.358z"/>
<path d="M245.226,252.358c0,5.95,4.824,10.774,10.774,10.774s10.774-4.823,10.774-10.774v-3.771c0-5.95-4.824-10.774-10.774-10.774
	s-10.774,4.824-10.774,10.774V252.358z"/>
<path d="M296.402,252.358v-3.771c0-5.95-4.823-10.774-10.774-10.774s-10.774,4.824-10.774,10.774v3.771
	c0,5.95,4.823,10.774,10.774,10.774S296.402,258.309,296.402,252.358z"/>
<path d="M60.28,220.123c5.95,0,10.774-4.824,10.774-10.774v-10.408h8.253c5.95,0,10.774-4.824,10.774-10.774
	c0-5.95-4.824-10.774-10.774-10.774h-8.253v-23.347c0-5.95-4.824-10.774-10.774-10.774s-10.774,4.824-10.774,10.774v23.347h-8.264
	c-5.95,0-10.774,4.824-10.774,10.774c0,5.95,4.824,10.774,10.774,10.774h8.264v10.408C49.506,215.299,54.33,220.123,60.28,220.123z"
	/>
<path d="M256,361.8c5.95,0,10.774-4.823,10.774-10.774v-44.529h8.264c5.95,0,10.774-4.823,10.774-10.774
	s-4.823-10.774-10.774-10.774h-38.064c-5.95,0-10.774,4.823-10.774,10.774s4.824,10.774,10.774,10.774h8.253v44.529
	C245.226,356.977,250.05,361.8,256,361.8z"/>
<path d="M385.718,261.602c-16.431,0-29.801,13.374-29.801,29.812c0,16.431,13.368,29.801,29.801,29.801
	c16.432,0,29.801-13.368,29.801-29.801C415.519,274.976,402.151,261.602,385.718,261.602z M385.718,299.667
	c-4.551,0-8.253-3.702-8.253-8.253c0-4.556,3.702-8.264,8.253-8.264c4.551,0,8.253,3.707,8.253,8.264
	C393.971,295.965,390.268,299.667,385.718,299.667z"/>
<path d="M379.9,154.046v21.009c0,5.95,4.823,10.774,10.774,10.774s10.774-4.824,10.774-10.774v-21.009
	c0-5.95-4.823-10.774-10.774-10.774S379.9,148.096,379.9,154.046z"/>
<path d="M346.771,154.046v21.009c0,5.95,4.823,10.774,10.774,10.774s10.774-4.824,10.774-10.774v-21.009
	c0-5.95-4.823-10.774-10.774-10.774S346.771,148.096,346.771,154.046z"/>
<path d="M313.641,154.046v21.009c0,5.95,4.824,10.774,10.774,10.774c5.95,0,10.774-4.824,10.774-10.774v-21.009
	c0-5.95-4.824-10.774-10.774-10.774C318.464,143.272,313.641,148.096,313.641,154.046z"/>
<path d="M451.72,143.272c-5.95,0-10.774,4.824-10.774,10.774v23.347h-8.253c-5.95,0-10.774,4.824-10.774,10.774
	c0,5.95,4.823,10.774,10.774,10.774h8.253v10.408c0,5.95,4.823,10.774,10.774,10.774s10.774-4.824,10.774-10.774v-10.408h8.264
	c5.95,0,10.774-4.824,10.774-10.774c0-5.95-4.823-10.774-10.774-10.774h-8.264v-23.347
	C462.494,148.096,457.67,143.272,451.72,143.272z"/>
<path d="M434.848,123.879c5.95,0,10.774-4.823,10.774-10.774c0-5.95-4.823-10.774-10.774-10.774h-4.668
	c-5.95,0-10.774,4.824-10.774,10.774c0,5.95,4.823,10.774,10.774,10.774H434.848z"/>
</svg>