<?xml version="1.0" encoding="iso-8859-1"?>
<!-- Uploaded to: SVG Repo, www.svgrepo.com, Generator: SVG Repo Mixer Tools -->
<svg version="1.1" id="Layer_1" xmlns="http://www.w3.org/2000/svg" xmlns:xlink="http://www.w3.org/1999/xlink" 
	 viewBox="0 0 512 512" xml:space="preserve">
<rect x="7.837" y="130.612" style="fill:#79CAE8;" width="496.327" height="250.775"/>
<g>
	<circle style="fill:#4B92B9;" cx="404.898" cy="256" r="62.694"/>
	<circle style="fill:#4B92B9;" cx="107.102" cy="256" r="62.694"/>
</g>
<g>
	<circle style="fill:#FFFFFF;" cx="107.102" cy="256" r="15.673"/>
	<circle style="fill:#FFFFFF;" cx="404.898" cy="256" r="15.673"/>
</g>
<rect x="203.755" y="167.184" style="fill:#CAF9F4;" width="104.49" height="177.633"/>
<g>
	<circle style="fill:#4B92B9;" cx="44.408" cy="344.816" r="15.673"/>
	<circle style="fill:#4B92B9;" cx="467.592" cy="344.816" r="15.673"/>
</g>
<path d="M0,122.776v266.449h512V122.776H0z M496.327,373.551H15.673V138.449h480.653V373.551z"/>
<path d="M107.102,279.51c12.963,0,23.51-10.547,23.51-23.51c0-12.963-10.547-23.51-23.51-23.51s-23.51,10.547-23.51,23.51
	C83.592,268.963,94.139,279.51,107.102,279.51z M107.102,248.163c4.322,0,7.837,3.515,7.837,7.837s-3.515,7.837-7.837,7.837
	s-7.837-3.515-7.837-7.837S102.78,248.163,107.102,248.163z"/>
<path d="M404.898,326.531c38.891,0,70.531-31.64,70.531-70.531s-31.64-70.531-70.531-70.531s-70.531,31.64-70.531,70.531
	S366.007,326.531,404.898,326.531z M404.898,201.143c30.248,0,54.857,24.609,54.857,54.857s-24.609,54.857-54.857,54.857
	c-30.248,0-54.857-24.609-54.857-54.857S374.65,201.143,404.898,201.143z"/>
<path d="M436.245,256h15.673c0-25.928-21.092-47.02-47.02-47.02v15.673C422.183,224.653,436.245,238.715,436.245,256z"/>
<path d="M404.898,279.51c12.963,0,23.51-10.547,23.51-23.51c0-12.963-10.547-23.51-23.51-23.51s-23.51,10.547-23.51,23.51
	C381.388,268.963,391.935,279.51,404.898,279.51z M404.898,248.163c4.322,0,7.837,3.515,7.837,7.837s-3.515,7.837-7.837,7.837
	s-7.837-3.515-7.837-7.837S400.576,248.163,404.898,248.163z"/>
<path d="M316.082,159.347H195.918v193.306h120.163V159.347z M300.408,336.98h-88.816V175.02h88.816V336.98z"/>
<rect x="227.61" y="243.263" width="15.673" height="64.982"/>
<polygon points="250.775,219.752 243.287,219.752 243.287,203.755 227.613,203.755 227.613,219.752 219.429,219.752 
	219.429,235.426 250.775,235.426 "/>
<rect x="268.716" y="203.755" width="15.673" height="64.982"/>
<polygon points="268.713,308.245 284.387,308.245 284.387,292.247 292.571,292.247 292.571,276.574 261.224,276.574 
	261.224,292.247 268.713,292.247 "/>
<rect x="376.602" y="151.51" width="15.673" height="15.673"/>
<rect x="417.52" y="151.51" width="15.673" height="15.673"/>
<path d="M107.102,326.531c38.891,0,70.531-31.64,70.531-70.531s-31.64-70.531-70.531-70.531S36.571,217.109,36.571,256
	S68.211,326.531,107.102,326.531z M107.102,201.143c30.248,0,54.857,24.609,54.857,54.857s-24.609,54.857-54.857,54.857
	S52.245,286.248,52.245,256S76.854,201.143,107.102,201.143z"/>
<path d="M107.102,303.02v-15.673c-17.285,0-31.347-14.062-31.347-31.347H60.082C60.082,281.928,81.175,303.02,107.102,303.02z"/>
<rect x="119.724" y="151.51" width="15.673" height="15.673"/>
<rect x="78.806" y="151.51" width="15.673" height="15.673"/>
<path d="M44.408,368.327c10.216,0,18.927-6.553,22.162-15.673h94.108l20.407-20.406l-11.083-11.083l-15.816,15.816H66.57
	c-3.235-9.121-11.946-15.673-22.162-15.673c-12.963,0-23.51,10.547-23.51,23.51S31.445,368.327,44.408,368.327z M44.408,336.98
	c4.322,0,7.837,3.515,7.837,7.837s-3.515,7.837-7.837,7.837s-7.837-3.515-7.837-7.837S40.086,336.98,44.408,336.98z"/>
<path d="M445.43,352.653c3.235,9.121,11.946,15.673,22.162,15.673c12.963,0,23.51-10.547,23.51-23.51s-10.547-23.51-23.51-23.51
	c-10.216,0-18.927,6.553-22.162,15.673h-87.615l-15.816-15.817l-11.083,11.083l20.407,20.406h94.107V352.653z M467.592,336.98
	c4.322,0,7.837,3.515,7.837,7.837s-3.515,7.837-7.837,7.837s-7.837-3.515-7.837-7.837S463.27,336.98,467.592,336.98z"/>
</svg>